<svg xmlns="http://www.w3.org/2000/svg" width="48" height="48">
  <path fill="#ff651f" d="m41 13 1 4-4.09 16.35a9.982 9.982 0 0 1-4.01 5.79l-8.19 5.68c-.51.36-1.11.53-1.71.53-.6 0-1.2-.17-1.71-.53l-8.19-5.68c-2-1.38-3.42-3.44-4.01-5.79L6 17l1-4-1-2 3.25-3.25a3.988 3.988 0 0 1 4.02-.99c.04.01.07.02.1.03L14 7l4-4h12l4 4 .65-.22c.83-.28 1.7-.27 2.5 0 .58.19 1.13.51 1.58.95l.02.02L42 11l-1 2z"/>
  <path fill="#f4592b" d="M38.73 7.73 33 11l-9 2-9-3-2.07-2.07c-.56-.56-1.41-.74-2.15-.44l-2.11.84.58-.58a3.988 3.988 0 0 1 4.02-.99c.04.01.07.02.1.03L14 7l4-4h12l4 4 .65-.22c.83-.28 1.7-.27 2.5 0 .58.19 1.13.51 1.58.95z"/>
  <path fill="#fff" d="M32.51 23.49c-.3.3-.38.77-.19 1.15l.34.68c.22.45.34.94.34 1.44 0 .8-.29 1.57-.83 2.16l-.66.74a1 1 0 0 1-1.04.05l-5.23-2.88c-.59-.4-.6-1.27-.01-1.66l3.91-2.66c.48-.28.63-.89.35-1.37l-1.9-3.16c-.31-.52-.14-.74.41-.98l6-3h-5l-3 .75c-.55.14-.87.7-.72 1.24l1.46 5.09c.14.51-.14 1.05-.65 1.22l-1.47.49c-.21.07-.41.11-.62.11-.21 0-.42-.04-.63-.11l-1.46-.49c-.51-.17-.79-.71-.65-1.22l1.46-5.09c.15-.54-.17-1.1-.72-1.24L19 14h-5l6 3c.55.24.72.46.41.98l-1.9 3.16a.995.995 0 0 0 .35 1.37l3.91 2.66c.59.39.58 1.26-.01 1.66l-5.23 2.88a1 1 0 0 1-1.04-.05l-.66-.74a3.19 3.19 0 0 1-.83-2.16c0-.5.12-.99.34-1.44l.34-.68c.19-.38.11-.85-.19-1.15l-4.09-4.83c-.83-.99-.94-2.41-.26-3.51l3.4-5.54c.27-.36.75-.49 1.17-.33l2.62 1.05c.48.19.99.29 1.49.29.61 0 1.23-.14 1.79-.42a5.287 5.287 0 0 1 4.78 0c1.03.51 2.22.56 3.28.13l2.62-1.05c.42-.16.9-.03 1.17.33l3.4 5.54c.68 1.1.57 2.52-.26 3.51l-4.09 4.83z"/>
  <path fill="#fff" d="m29.51 32.49-4.8 3.8c-.19.19-.45.29-.71.29s-.52-.1-.71-.29l-4.8-3.8a.503.503 0 0 1 .13-.8l4.93-2.47c.14-.07.29-.1.45-.1s.31.03.45.1l4.93 2.47c.3.15.37.56.13.8z"/>
  <path fill="#ed4d01" d="m41 13 1 4-4.09 16.35a9.982 9.982 0 0 1-4.01 5.79l-8.19 5.68c-.51.36-1.11.53-1.71.53V10.36L25 12h7v-2l5.15-3.22c.59.19 1.15.52 1.6.97L42 11l-1 2z"/>
  <path fill="#f5f5f5" d="M32.51 23.49c-.3.3-.38.77-.19 1.15l.34.68c.22.45.34.94.34 1.44 0 .8-.29 1.57-.83 2.16l-.66.74a1 1 0 0 1-1.04.05l-5.23-2.88c-.59-.4-.6-1.27-.01-1.66l3.91-2.66c.48-.28.63-.89.35-1.37l-1.9-3.16c-.31-.52-.14-.74.41-.98l6-3h-5l-3 .75c-.55.14-.87.7-.72 1.24l1.46 5.09c.14.51-.14 1.05-.65 1.22l-1.47.49c-.21.07-.41.11-.62.11V9.63c.82 0 1.64.19 2.39.57 1.03.51 2.22.56 3.28.13l2.62-1.05c.42-.16.9-.03 1.17.33l3.4 5.54c.68 1.1.57 2.52-.26 3.51l-4.09 4.83zM29.51 32.49l-4.8 3.8c-.19.19-.45.29-.71.29v-7.46c.16 0 .31.03.45.1l4.93 2.47c.3.15.37.56.13.8z"/>
</svg>