<svg width="48" height="48" fill="none" xmlns="http://www.w3.org/2000/svg">
  <g clip-path="url(#clip0)">
    <path fill-rule="evenodd" clip-rule="evenodd" d="M9.123 15.198l2.265-4.066C10.123 8.48 9.145 5.46 8.248 2.366c0 0-5.863.492-7.31 6.187 0 0 .825 3.182 3.446 6.692l4.739-.047z" fill="#E7D8C5"/>
    <path fill-rule="evenodd" clip-rule="evenodd" d="M11.387 11.132l-2.265 4.066-4.74.047a22.19 22.19 0 004.664 4.64 21.682 21.682 0 002.53 1.597c3.18 1.713 7.249 2.892 12.424 2.892s9.243-1.179 12.423-2.892a21.692 21.692 0 002.53-1.598 22.192 22.192 0 004.665-4.639l-4.74-.047-2.265-4.066a24.074 24.074 0 01-1.839 3.236c-2.419 3.533-5.75 5.857-10.774 5.857-5.023 0-8.355-2.324-10.774-5.857a24.096 24.096 0 01-1.84-3.236z" fill="#F6F0E9"/>
    <path d="M24.611 20.018a3.749 3.749 0 10-1.237-7.395 3.749 3.749 0 001.237 7.395z" fill="#E7D8C5"/>
    <path fill-rule="evenodd" clip-rule="evenodd" d="M36.613 11.132l2.265 4.066 4.74.047c2.62-3.51 3.444-6.692 3.444-6.692-1.446-5.695-7.308-6.187-7.308-6.187-.898 3.094-1.876 6.115-3.14 8.766z" fill="#E7D8C5"/>
    <path fill-rule="evenodd" clip-rule="evenodd" d="M34.775 14.368C31.15 10.538 27.443 8.905 24 8.905c-3.443 0-7.15 1.633-10.774 5.463 2.419 3.533 5.75 5.857 10.774 5.857 5.023 0 8.355-2.324 10.775-5.857zM24 12.573a3.75 3.75 0 110 7.5 3.75 3.75 0 010-7.5z" fill="#EC4C56"/>
    <path fill-rule="evenodd" clip-rule="evenodd" d="M24 24.374c-5.175 0-9.243-1.179-12.423-2.892 0 1.518.66 2.95 2.098 4.092 1.935 1.536 5.279 2.55 10.325 2.55 5.046 0 8.39-1.014 10.325-2.55 1.44-1.143 2.098-2.574 2.098-4.092-3.18 1.713-7.248 2.892-12.423 2.892z" fill="#F6F0E9"/>
    <path fill-rule="evenodd" clip-rule="evenodd" d="M13.675 25.574c-1.439-1.143-2.098-2.574-2.098-4.092a21.687 21.687 0 01-2.53-1.598 53.37 53.37 0 00-2.624 4.769c1.306 1.303 3.143 2.477 6.32 3.42.31-1.002.622-1.86.932-2.5z" fill="#EC4C56"/>
    <path fill-rule="evenodd" clip-rule="evenodd" d="M12.743 28.072c-3.177-.942-5.014-2.116-6.32-3.42a72.086 72.086 0 00-2.08 4.69c1.944 1.782 4.332 3.3 7.058 3.965.423-1.902.878-3.73 1.342-5.235z" fill="#F6A7AC"/>
    <path fill-rule="evenodd" clip-rule="evenodd" d="M11.401 33.307c-2.726-.664-5.114-2.183-7.058-3.965a92.392 92.392 0 00-1.81 4.902c1.54 1.907 5.068 4.467 7.575 5.542.364-2 .807-4.288 1.293-6.479z" fill="#EC4C56"/>
    <path fill-rule="evenodd" clip-rule="evenodd" d="M10.108 39.786c-2.507-1.075-6.035-3.635-7.576-5.542A115.087 115.087 0 00.938 39.35s2.17 3.78 8.184 6.284c0 0 .255-1.68.675-4.095.095-.55.2-1.138.311-1.753z" fill="#E7D8C5"/>
    <path fill-rule="evenodd" clip-rule="evenodd" d="M34.325 25.574c.31.64.623 1.497.932 2.498 3.177-.942 5.014-2.116 6.32-3.42a53.375 53.375 0 00-2.623-4.768 21.662 21.662 0 01-2.53 1.598c0 1.518-.66 2.95-2.099 4.092z" fill="#EC4C56"/>
    <path fill-rule="evenodd" clip-rule="evenodd" d="M41.577 24.653c-1.306 1.303-3.143 2.477-6.32 3.42.464 1.504.92 3.332 1.342 5.234 2.726-.664 5.114-2.183 7.058-3.965a72.148 72.148 0 00-2.08-4.69z" fill="#F6A7AC"/>
    <path fill-rule="evenodd" clip-rule="evenodd" d="M43.657 29.343c-1.944 1.781-4.332 3.3-7.058 3.964.486 2.19.93 4.478 1.293 6.48 2.508-1.076 6.036-3.636 7.576-5.543a92.347 92.347 0 00-1.811-4.901z" fill="#EC4C56"/>
    <path fill-rule="evenodd" clip-rule="evenodd" d="M45.468 34.244c-1.54 1.907-5.069 4.467-7.576 5.542a242.956 242.956 0 01.986 5.848c6.015-2.505 8.185-6.284 8.185-6.284a115.05 115.05 0 00-1.595-5.106z" fill="#E7D8C5"/>
    <path fill-rule="evenodd" clip-rule="evenodd" d="M37.892 39.786a173.868 173.868 0 00-1.293-6.479c-.423-1.902-.878-3.73-1.342-5.235-.309-1-.622-1.858-.932-2.498-1.935 1.536-5.279 2.55-10.325 2.55-5.046 0-8.39-1.014-10.325-2.55-.31.64-.623 1.497-.932 2.498-.464 1.505-.92 3.333-1.342 5.235-.486 2.19-.93 4.478-1.293 6.48a239.8 239.8 0 00-.312 1.752c5.885 1.18 22.523 1.18 28.407 0-.095-.55-.2-1.138-.31-1.753z" fill="#596172"/>
    <path d="M40.193 20.117a23.151 23.151 0 003.95-4.014c2.876-3.73 3.79-7.17 3.827-7.314a.937.937 0 00.001-.466c-.66-2.599-2.279-4.617-4.681-5.835-1.79-.907-3.39-1.05-3.458-1.056a.936.936 0 00-.978.673c-1.102 3.797-2.378 7.686-4.237 10.773-3.34-3.216-6.992-4.91-10.617-4.91-3.625 0-7.277 1.694-10.616 4.91-1.86-3.087-3.136-6.976-4.238-10.773a.937.937 0 00-.978-.673c-.068.005-1.669.149-3.458 1.056C2.308 3.706.69 5.724.03 8.323a.937.937 0 00.001.466c.038.144.951 3.584 3.827 7.314a23.15 23.15 0 003.95 4.014C4.85 25.064 2.237 31.441.037 39.091a.938.938 0 00.087.726c.096.166 2.4 4.085 8.637 6.683a.937.937 0 001.288-.725c.006-.044.198-1.297.517-3.17 3.132.509 8.282.763 13.434.763 5.152 0 10.302-.254 13.434-.763.32 1.873.51 3.127.517 3.17a.938.938 0 001.288.725c6.236-2.598 8.541-6.517 8.636-6.683a.937.937 0 00.088-.726c-2.2-7.65-4.813-14.027-7.77-18.974zm2.34 8.957c-1.672 1.442-3.429 2.466-5.24 3.052a72.579 72.579 0 00-.88-3.444c1.983-.664 3.563-1.478 4.85-2.506.433.93.856 1.896 1.27 2.898zm-4.83 4.888c1.93-.599 3.793-1.623 5.561-3.056.389 1.009.768 2.05 1.139 3.124-1.318 1.462-3.74 3.273-5.811 4.37-.267-1.421-.566-2.939-.89-4.438zm2.718-9.527c-1.159 1.012-2.637 1.807-4.563 2.456a19.7 19.7 0 00-.4-1.07c1.094-1.062 1.741-2.354 1.876-3.775.27-.155.54-.313.803-.477.18-.113.357-.228.533-.345a53.113 53.113 0 011.752 3.211zM40.42 3.43c1.454.334 4.622 1.468 5.67 5.113-.227.727-1.059 3.11-2.931 5.74l-3.713-.037-1.77-3.176c1.1-2.4 1.97-5.03 2.744-7.64zm-6.866 11.03c-1.54 2.046-3.352 3.43-5.477 4.174.388-.683.611-1.47.611-2.31A4.693 4.693 0 0024 11.635a4.693 4.693 0 00-4.688 4.687c0 .84.223 1.628.612 2.31-2.126-.743-3.937-2.127-5.478-4.172 3.05-3.024 6.342-4.619 9.554-4.619 3.212 0 6.504 1.595 9.553 4.619zM24 19.137a2.816 2.816 0 01-2.813-2.813A2.816 2.816 0 0124 13.511a2.816 2.816 0 012.812 2.812A2.816 2.816 0 0124 19.136zM5.5 4.19a8.93 8.93 0 012.081-.759c.774 2.61 1.644 5.24 2.744 7.639l-1.77 3.176-3.713.037c-1.873-2.631-2.705-5.015-2.93-5.74.557-1.946 1.763-3.41 3.589-4.353zm.823 11.953l2.796-.028a.938.938 0 00.81-.481l1.414-2.54c.434.781.9 1.526 1.404 2.223 2.848 3.933 6.53 5.846 11.253 5.846 4.724 0 8.405-1.913 11.253-5.846.505-.697.97-1.442 1.404-2.223l1.415 2.54a.937.937 0 00.81.481l2.795.028c-3.453 3.894-8.02 6.255-13.596 7.023a.938.938 0 10.256 1.857c2.42-.333 4.689-.96 6.78-1.87-.4.854-1.119 1.603-2.136 2.21-1.999 1.193-5.104 1.823-8.98 1.823-3.89 0-7.001-.634-9-1.834-1.008-.606-1.722-1.35-2.119-2.199 2.092.91 4.36 1.537 6.78 1.87a.937.937 0 10.256-1.858c-5.576-.767-10.142-3.128-13.595-7.022zM9.408 38.4c-2.07-1.096-4.493-2.907-5.811-4.369a93.3 93.3 0 011.139-3.124c1.768 1.433 3.631 2.457 5.561 3.056-.323 1.5-.622 3.017-.889 4.437zm1.3-6.273c-1.812-.586-3.57-1.61-5.241-3.052a72.383 72.383 0 011.27-2.898c1.287 1.028 2.867 1.842 4.85 2.506a72.65 72.65 0 00-.88 3.444zm-.846-10.558c.264.165.533.323.805.478.134 1.422.78 2.714 1.874 3.774a19.64 19.64 0 00-.398 1.071c-1.927-.649-3.405-1.444-4.565-2.456a53.127 53.127 0 011.752-3.211c.176.117.353.232.532.344zm-1.476 22.71c-3.891-1.875-5.828-4.245-6.427-5.084.315-1.082.64-2.137.971-3.166 1.649 1.58 4.078 3.294 6.127 4.295-.29 1.63-.521 3.023-.67 3.954zm2.501-3.52c.78-4.385 2.002-10.538 3.207-13.765 2.32 1.372 5.652 2.068 9.906 2.068 4.253 0 7.586-.696 9.906-2.067 1.206 3.227 2.427 9.38 3.207 13.764-6.007.972-20.218.972-26.226 0zm28.727 3.52c-.15-.932-.38-2.325-.67-3.955 2.048-1.001 4.477-2.716 6.126-4.295.331 1.029.656 2.084.971 3.166-.6.841-2.538 3.21-6.427 5.083z" fill="#242933"/>
    <path d="M24 25.311a.938.938 0 000-1.875.937.937 0 100 1.875z" fill="#242933"/>
  </g>
  <defs>
    <clipPath id="clip0">
      <path fill="#fff" d="M0 0h48v48H0z"/>
    </clipPath>
  </defs>
</svg>